<mxfile host="65bd71144e">
    <diagram id="LMcP1Wlrq45P4Tv21y-p" name="Page-1">
        <mxGraphModel dx="1202" dy="759" grid="1" gridSize="10" guides="1" tooltips="1" connect="1" arrows="1" fold="1" page="1" pageScale="1" pageWidth="1100" pageHeight="850" background="#ffffff" math="0" shadow="0">
            <root>
                <mxCell id="0"/>
                <mxCell id="1" parent="0"/>
                <mxCell id="89" value="" style="group;movable=0;resizable=0;rotatable=0;deletable=0;editable=0;connectable=0;" parent="1" vertex="1" connectable="0">
                    <mxGeometry x="310" y="40" width="600" height="470" as="geometry"/>
                </mxCell>
                <mxCell id="99" value="" style="group" parent="1" vertex="1" connectable="0">
                    <mxGeometry x="110" y="140" width="145" height="250" as="geometry"/>
                </mxCell>
                <mxCell id="90" value="&lt;i style=&quot;&quot;&gt;&lt;font color=&quot;#3333ff&quot;&gt;LastData&lt;/font&gt;&lt;/i&gt;" style="ellipse;whiteSpace=wrap;html=1;fillColor=#b1ddf0;strokeColor=#10739e;" parent="99" vertex="1">
                    <mxGeometry width="145" height="50" as="geometry"/>
                </mxCell>
                <mxCell id="91" value="&lt;font color=&quot;#ff6666&quot;&gt;last_data_dataframe&lt;/font&gt;" style="rounded=1;whiteSpace=wrap;html=1;fillStyle=solid;fillColor=#ffcccc;strokeColor=#36393d;" parent="99" vertex="1">
                    <mxGeometry x="5" y="70" width="140" height="30" as="geometry"/>
                </mxCell>
                <mxCell id="98" style="edgeStyle=orthogonalEdgeStyle;html=1;exitX=0;exitY=0.5;exitDx=0;exitDy=0;entryX=0;entryY=0.5;entryDx=0;entryDy=0;strokeColor=#333333;" parent="99" source="90" target="91" edge="1">
                    <mxGeometry relative="1" as="geometry"/>
                </mxCell>
                <mxCell id="92" value="&lt;font color=&quot;#ff6666&quot;&gt;meteorogram&lt;/font&gt;" style="rounded=1;whiteSpace=wrap;html=1;fillStyle=solid;fillColor=#ffcccc;strokeColor=#36393d;" parent="99" vertex="1">
                    <mxGeometry x="5" y="120" width="140" height="30" as="geometry"/>
                </mxCell>
                <mxCell id="97" style="edgeStyle=orthogonalEdgeStyle;html=1;exitX=0;exitY=0.5;exitDx=0;exitDy=0;entryX=0;entryY=0.5;entryDx=0;entryDy=0;strokeColor=#333333;" parent="99" source="90" target="92" edge="1">
                    <mxGeometry relative="1" as="geometry"/>
                </mxCell>
                <mxCell id="93" value="&lt;font color=&quot;#ff6666&quot;&gt;map_temps&lt;/font&gt;" style="rounded=1;whiteSpace=wrap;html=1;fillStyle=solid;fillColor=#ffcccc;strokeColor=#36393d;" parent="99" vertex="1">
                    <mxGeometry x="5" y="170" width="140" height="30" as="geometry"/>
                </mxCell>
                <mxCell id="96" style="edgeStyle=orthogonalEdgeStyle;html=1;exitX=0;exitY=0.5;exitDx=0;exitDy=0;entryX=0;entryY=0.5;entryDx=0;entryDy=0;strokeColor=#333333;" parent="99" source="90" target="93" edge="1">
                    <mxGeometry relative="1" as="geometry"/>
                </mxCell>
                <mxCell id="94" value="&lt;font color=&quot;#ff6666&quot;&gt;map_pp&lt;/font&gt;" style="rounded=1;whiteSpace=wrap;html=1;fillStyle=solid;fillColor=#ffcccc;strokeColor=#36393d;" parent="99" vertex="1">
                    <mxGeometry x="5" y="220" width="140" height="30" as="geometry"/>
                </mxCell>
                <mxCell id="95" style="edgeStyle=orthogonalEdgeStyle;html=1;exitX=0;exitY=0.5;exitDx=0;exitDy=0;entryX=0;entryY=0.5;entryDx=0;entryDy=0;strokeColor=#333333;" parent="99" source="90" target="94" edge="1">
                    <mxGeometry relative="1" as="geometry"/>
                </mxCell>
                <mxCell id="100" value="&lt;font color=&quot;#7f00ff&quot;&gt;series&lt;/font&gt;" style="ellipse;whiteSpace=wrap;html=1;fillColor=#d0cee2;strokeColor=#56517e;" parent="1" vertex="1">
                    <mxGeometry x="1125" y="140" width="120" height="50" as="geometry"/>
                </mxCell>
                <mxCell id="101" value="" style="group" parent="1" vertex="1" connectable="0">
                    <mxGeometry x="310" y="140" width="145" height="250" as="geometry"/>
                </mxCell>
                <mxCell id="102" value="&lt;i style=&quot;&quot;&gt;&lt;font color=&quot;#3333ff&quot;&gt;Anomalies&lt;/font&gt;&lt;/i&gt;" style="ellipse;whiteSpace=wrap;html=1;fillColor=#b1ddf0;strokeColor=#10739e;" parent="101" vertex="1">
                    <mxGeometry width="145" height="50" as="geometry"/>
                </mxCell>
                <mxCell id="103" value="&lt;font color=&quot;#ff6666&quot;&gt;calculate_anomalies&lt;/font&gt;" style="rounded=1;whiteSpace=wrap;html=1;fillStyle=solid;fillColor=#ffcccc;strokeColor=#36393d;" parent="101" vertex="1">
                    <mxGeometry x="5" y="70" width="140" height="30" as="geometry"/>
                </mxCell>
                <mxCell id="104" style="edgeStyle=orthogonalEdgeStyle;html=1;exitX=0;exitY=0.5;exitDx=0;exitDy=0;entryX=0;entryY=0.5;entryDx=0;entryDy=0;strokeColor=#333333;" parent="101" source="102" target="103" edge="1">
                    <mxGeometry relative="1" as="geometry"/>
                </mxCell>
                <mxCell id="105" value="&lt;font color=&quot;#ff6666&quot;&gt;bars_fig&lt;/font&gt;" style="rounded=1;whiteSpace=wrap;html=1;fillStyle=solid;fillColor=#ffcccc;strokeColor=#36393d;" parent="101" vertex="1">
                    <mxGeometry x="5" y="120" width="140" height="30" as="geometry"/>
                </mxCell>
                <mxCell id="106" style="edgeStyle=orthogonalEdgeStyle;html=1;exitX=0;exitY=0.5;exitDx=0;exitDy=0;entryX=0;entryY=0.5;entryDx=0;entryDy=0;strokeColor=#333333;" parent="101" source="102" target="105" edge="1">
                    <mxGeometry relative="1" as="geometry"/>
                </mxCell>
                <mxCell id="107" value="&lt;font color=&quot;#ff6666&quot;&gt;maps&lt;/font&gt;" style="rounded=1;whiteSpace=wrap;html=1;fillStyle=solid;fillColor=#ffcccc;strokeColor=#36393d;" parent="101" vertex="1">
                    <mxGeometry x="5" y="170" width="140" height="30" as="geometry"/>
                </mxCell>
                <mxCell id="108" style="edgeStyle=orthogonalEdgeStyle;html=1;exitX=0;exitY=0.5;exitDx=0;exitDy=0;entryX=0;entryY=0.5;entryDx=0;entryDy=0;strokeColor=#333333;" parent="101" source="102" target="107" edge="1">
                    <mxGeometry relative="1" as="geometry"/>
                </mxCell>
                <mxCell id="123" value="" style="group" parent="1" vertex="1" connectable="0">
                    <mxGeometry x="510" y="140" width="145" height="300" as="geometry"/>
                </mxCell>
                <mxCell id="111" value="" style="group" parent="123" vertex="1" connectable="0">
                    <mxGeometry width="145" height="250" as="geometry"/>
                </mxCell>
                <mxCell id="112" value="&lt;i style=&quot;&quot;&gt;&lt;font color=&quot;#3333ff&quot;&gt;Clasification&lt;/font&gt;&lt;/i&gt;" style="ellipse;whiteSpace=wrap;html=1;fillColor=#b1ddf0;strokeColor=#10739e;" parent="111" vertex="1">
                    <mxGeometry width="145" height="50" as="geometry"/>
                </mxCell>
                <mxCell id="113" value="&lt;font color=&quot;#ff6666&quot;&gt;get_percentile&lt;/font&gt;" style="rounded=1;whiteSpace=wrap;html=1;fillStyle=solid;fillColor=#ffcccc;strokeColor=#36393d;" parent="111" vertex="1">
                    <mxGeometry x="5" y="70" width="140" height="30" as="geometry"/>
                </mxCell>
                <mxCell id="114" style="edgeStyle=orthogonalEdgeStyle;html=1;exitX=0;exitY=0.5;exitDx=0;exitDy=0;entryX=0;entryY=0.5;entryDx=0;entryDy=0;strokeColor=#333333;" parent="111" source="112" target="113" edge="1">
                    <mxGeometry relative="1" as="geometry"/>
                </mxCell>
                <mxCell id="115" value="&lt;font color=&quot;#ff6666&quot;&gt;prep_dataframe&lt;/font&gt;" style="rounded=1;whiteSpace=wrap;html=1;fillStyle=solid;fillColor=#ffcccc;strokeColor=#36393d;" parent="111" vertex="1">
                    <mxGeometry x="5" y="120" width="140" height="30" as="geometry"/>
                </mxCell>
                <mxCell id="116" style="edgeStyle=orthogonalEdgeStyle;html=1;exitX=0;exitY=0.5;exitDx=0;exitDy=0;entryX=0;entryY=0.5;entryDx=0;entryDy=0;strokeColor=#333333;" parent="111" source="112" target="115" edge="1">
                    <mxGeometry relative="1" as="geometry"/>
                </mxCell>
                <mxCell id="117" value="&lt;font color=&quot;#ff6666&quot;&gt;style_tmin&lt;/font&gt;" style="rounded=1;whiteSpace=wrap;html=1;fillStyle=solid;fillColor=#ffcccc;strokeColor=#36393d;" parent="111" vertex="1">
                    <mxGeometry x="5" y="170" width="140" height="30" as="geometry"/>
                </mxCell>
                <mxCell id="118" style="edgeStyle=orthogonalEdgeStyle;html=1;exitX=0;exitY=0.5;exitDx=0;exitDy=0;entryX=0;entryY=0.5;entryDx=0;entryDy=0;strokeColor=#333333;" parent="111" source="112" target="117" edge="1">
                    <mxGeometry relative="1" as="geometry"/>
                </mxCell>
                <mxCell id="119" value="&lt;font color=&quot;#ff6666&quot;&gt;style_tmax&lt;/font&gt;" style="rounded=1;whiteSpace=wrap;html=1;fillStyle=solid;fillColor=#ffcccc;strokeColor=#36393d;" parent="111" vertex="1">
                    <mxGeometry x="5" y="220" width="140" height="30" as="geometry"/>
                </mxCell>
                <mxCell id="120" style="edgeStyle=orthogonalEdgeStyle;html=1;exitX=0;exitY=0.5;exitDx=0;exitDy=0;entryX=0;entryY=0.5;entryDx=0;entryDy=0;strokeColor=#333333;" parent="111" source="112" target="119" edge="1">
                    <mxGeometry relative="1" as="geometry"/>
                </mxCell>
                <mxCell id="121" value="&lt;font color=&quot;#ff6666&quot;&gt;style_pp&lt;/font&gt;" style="rounded=1;whiteSpace=wrap;html=1;fillStyle=solid;fillColor=#ffcccc;strokeColor=#36393d;" parent="123" vertex="1">
                    <mxGeometry x="5" y="270" width="140" height="30" as="geometry"/>
                </mxCell>
                <mxCell id="122" style="edgeStyle=orthogonalEdgeStyle;html=1;exitX=0;exitY=0.5;exitDx=0;exitDy=0;entryX=0;entryY=0.5;entryDx=0;entryDy=0;strokeColor=#333333;fontColor=#7F00FF;" parent="123" source="112" target="121" edge="1">
                    <mxGeometry relative="1" as="geometry"/>
                </mxCell>
                <mxCell id="138" value="" style="group" parent="1" vertex="1" connectable="0">
                    <mxGeometry x="710" y="140" width="145" height="200" as="geometry"/>
                </mxCell>
                <mxCell id="126" value="&lt;i style=&quot;&quot;&gt;&lt;font color=&quot;#3333ff&quot;&gt;Decadiarias&lt;/font&gt;&lt;/i&gt;" style="ellipse;whiteSpace=wrap;html=1;fillColor=#b1ddf0;strokeColor=#10739e;" parent="138" vertex="1">
                    <mxGeometry width="145" height="50" as="geometry"/>
                </mxCell>
                <mxCell id="127" value="&lt;font color=&quot;#ff6666&quot;&gt;df_prep&lt;/font&gt;" style="rounded=1;whiteSpace=wrap;html=1;fillStyle=solid;fillColor=#ffcccc;strokeColor=#36393d;" parent="138" vertex="1">
                    <mxGeometry x="5" y="70" width="140" height="30" as="geometry"/>
                </mxCell>
                <mxCell id="128" style="edgeStyle=orthogonalEdgeStyle;html=1;exitX=0;exitY=0.5;exitDx=0;exitDy=0;entryX=0;entryY=0.5;entryDx=0;entryDy=0;strokeColor=#333333;" parent="138" source="126" target="127" edge="1">
                    <mxGeometry relative="1" as="geometry"/>
                </mxCell>
                <mxCell id="129" value="&lt;font color=&quot;#ff6666&quot;&gt;calculate_anom&lt;/font&gt;" style="rounded=1;whiteSpace=wrap;html=1;fillStyle=solid;fillColor=#ffcccc;strokeColor=#36393d;" parent="138" vertex="1">
                    <mxGeometry x="5" y="120" width="140" height="30" as="geometry"/>
                </mxCell>
                <mxCell id="130" style="edgeStyle=orthogonalEdgeStyle;html=1;exitX=0;exitY=0.5;exitDx=0;exitDy=0;entryX=0;entryY=0.5;entryDx=0;entryDy=0;strokeColor=#333333;" parent="138" source="126" target="129" edge="1">
                    <mxGeometry relative="1" as="geometry"/>
                </mxCell>
                <mxCell id="131" value="&lt;font color=&quot;#ff6666&quot;&gt;maps&lt;/font&gt;" style="rounded=1;whiteSpace=wrap;html=1;fillStyle=solid;fillColor=#ffcccc;strokeColor=#36393d;" parent="138" vertex="1">
                    <mxGeometry x="5" y="170" width="140" height="30" as="geometry"/>
                </mxCell>
                <mxCell id="132" style="edgeStyle=orthogonalEdgeStyle;html=1;exitX=0;exitY=0.5;exitDx=0;exitDy=0;entryX=0;entryY=0.5;entryDx=0;entryDy=0;strokeColor=#333333;" parent="138" source="126" target="131" edge="1">
                    <mxGeometry relative="1" as="geometry"/>
                </mxCell>
                <mxCell id="147" value="" style="group" parent="1" vertex="1" connectable="0">
                    <mxGeometry x="910" y="140" width="145" height="150" as="geometry"/>
                </mxCell>
                <mxCell id="140" value="&lt;i style=&quot;&quot;&gt;&lt;font color=&quot;#3333ff&quot;&gt;Coords&lt;/font&gt;&lt;/i&gt;" style="ellipse;whiteSpace=wrap;html=1;fillColor=#b1ddf0;strokeColor=#10739e;" parent="147" vertex="1">
                    <mxGeometry width="145" height="50" as="geometry"/>
                </mxCell>
                <mxCell id="141" value="&lt;font color=&quot;#ff6666&quot;&gt;add_lat_lon&lt;/font&gt;" style="rounded=1;whiteSpace=wrap;html=1;fillStyle=solid;fillColor=#ffcccc;strokeColor=#36393d;" parent="147" vertex="1">
                    <mxGeometry x="5" y="70" width="140" height="30" as="geometry"/>
                </mxCell>
                <mxCell id="142" style="edgeStyle=orthogonalEdgeStyle;html=1;exitX=0;exitY=0.5;exitDx=0;exitDy=0;entryX=0;entryY=0.5;entryDx=0;entryDy=0;strokeColor=#333333;" parent="147" source="140" target="141" edge="1">
                    <mxGeometry relative="1" as="geometry"/>
                </mxCell>
                <mxCell id="143" value="&lt;font color=&quot;#ff6666&quot;&gt;add_lat_lon_prov&lt;/font&gt;" style="rounded=1;whiteSpace=wrap;html=1;fillStyle=solid;fillColor=#ffcccc;strokeColor=#36393d;" parent="147" vertex="1">
                    <mxGeometry x="5" y="120" width="140" height="30" as="geometry"/>
                </mxCell>
                <mxCell id="144" style="edgeStyle=orthogonalEdgeStyle;html=1;exitX=0;exitY=0.5;exitDx=0;exitDy=0;entryX=0;entryY=0.5;entryDx=0;entryDy=0;strokeColor=#333333;" parent="147" source="140" target="143" edge="1">
                    <mxGeometry relative="1" as="geometry"/>
                </mxCell>
                <mxCell id="148" value="Obtiene los datos de las últimas 24 horas, genera el meteorograma, y mapas de distribución de temperatura máxima, mínima y precipitación." style="shape=note;whiteSpace=wrap;html=1;backgroundOutline=1;darkOpacity=0.05;fillColor=#FFFFCC;fontColor=#000000;strokeColor=#B09500;" vertex="1" parent="1">
                    <mxGeometry x="110" y="485" width="150" height="175" as="geometry"/>
                </mxCell>
                <mxCell id="149" value="Calcula las anomalías mensuales de las 3 variables, además, crea sus gráficos de barra y mapas de distribución." style="shape=note;whiteSpace=wrap;html=1;backgroundOutline=1;darkOpacity=0.05;fillColor=#FFFFCC;fontColor=#000000;strokeColor=#B09500;" vertex="1" parent="1">
                    <mxGeometry x="305" y="485" width="150" height="175" as="geometry"/>
                </mxCell>
                <mxCell id="150" value="Hace la caracterización de valores de las 3 variables en base a percentiles, y los resalta por colores en tablas." style="shape=note;whiteSpace=wrap;html=1;backgroundOutline=1;darkOpacity=0.05;fillColor=#FFFFCC;fontColor=#000000;strokeColor=#B09500;" vertex="1" parent="1">
                    <mxGeometry x="510" y="485" width="150" height="175" as="geometry"/>
                </mxCell>
                <mxCell id="151" value="Calcula las anomalías de precipitación por decadiarias y genera 3 mapas por mes." style="shape=note;whiteSpace=wrap;html=1;backgroundOutline=1;darkOpacity=0.05;fillColor=#FFFFCC;fontColor=#000000;strokeColor=#B09500;" vertex="1" parent="1">
                    <mxGeometry x="707.5" y="485" width="150" height="175" as="geometry"/>
                </mxCell>
                <mxCell id="152" value="Clase auxiliar. Anexa las coordenadas a los dataframes con datos que serán usados para crear mapas." style="shape=note;whiteSpace=wrap;html=1;backgroundOutline=1;darkOpacity=0.05;fillColor=#FFFFCC;fontColor=#000000;strokeColor=#B09500;" vertex="1" parent="1">
                    <mxGeometry x="910" y="485" width="150" height="175" as="geometry"/>
                </mxCell>
                <mxCell id="153" value="Función. Genera gráficos de series de tiempo para las temperaturas extremas, y gráfico de barras para la precipitación." style="shape=note;whiteSpace=wrap;html=1;backgroundOutline=1;darkOpacity=0.05;fillColor=#FFFFCC;fontColor=#000000;strokeColor=#B09500;" vertex="1" parent="1">
                    <mxGeometry x="1110" y="485" width="150" height="175" as="geometry"/>
                </mxCell>
            </root>
        </mxGraphModel>
    </diagram>
</mxfile>